<?xml version="1.0" encoding="UTF-8"?>
<svg width="14.404mm" height="14.296mm" version="1.1" viewBox="0 0 14.404 14.296" xmlns="http://www.w3.org/2000/svg" xmlns:cc="http://creativecommons.org/ns#" xmlns:dc="http://purl.org/dc/elements/1.1/" xmlns:rdf="http://www.w3.org/1999/02/22-rdf-syntax-ns#">
 <metadata>
  <rdf:RDF>
   <cc:Work rdf:about="">
    <dc:format>image/svg+xml</dc:format>
    <dc:type rdf:resource="http://purl.org/dc/dcmitype/StillImage"/>
    <dc:title/>
   </cc:Work>
  </rdf:RDF>
 </metadata>
 <g transform="translate(-229.46 -115.58)">
  <g transform="translate(23.386 -.28164)">
   <g fill="none">
    <path d="m217.46 117.37s1.3218 0.4063 1.7471 2.7923c0 0 0.13053 0.29494 0.13053 0.41896s-0.0949 0.34277-0.10082 0.38412c-6e-3 0.0413-0.14279 0.65555 0.0167 0.82681 0.15946 0.17128 0.49996 0.58416 0.66911 0.77318 0.16116 0.18009 0.59376 0.67437 0.56078 0.85047-0.0607 0.30525-0.20438 0.44769-0.39629 0.52625-0.14793 0.0988-0.0918 0.20119-0.0709 0.35435 0.0354 0.11812-0.0289 0.22679-0.0289 0.22679 0.0128 0.0135 0.0975 0.0993 0.11753 0.18958-0.0289 0.32285-0.0377 0.47329-0.35414 0.59471 0.33634 0.0635 0.28993 0.21278 0.32933 0.40633-6e-3 0.16537-0.0343 0.23033-0.15828 0.32483-0.12402 0.0945-0.21993 0.0355-0.21261 0.16536 7e-3 0.13092 0.6634 1.5388-1.1044 1.571-0.73018-0.0105-1.464-0.29791-1.8958-0.0177-0.19489 0.16536-0.6024 0.8032-0.62012 1.2698-0.0177 0.46656 0.1004 1.0394 0.15355 1.128"/>
    <path d="m217.24 120.67s0.47189-0.48861 0.77257-0.57213c0.30068-0.0835 0.65147-0.0919 0.79346-0.0209 0.14198 0.071 0.2088 0.13363 0.24221 0.2088 0.0334 0.0752 0.0418 0.35913-0.3842 0.16705-0.42596-0.1921-0.67652-0.1587-1.161 0.24638s-0.69323 0.39256-0.26309-0.0292z"/>
    <path d="m218.6 121.09s0.2987 0.65345-0.032 0.99599"/>
    <path d="m218.86 122.15s-0.59354-0.0856-0.98333-0.36908"/>
    <path d="m217.88 121.78s0.17718 0.36912 0.7589 0.43999c0 0 0.0266-0.0723 0.22443-0.0709"/>
    <path d="m217.67 116.71s-0.93069 3.8841-4.1045 4.9197"/>
    <path d="m217.67 116.71s-0.90583-1.5869-5.0754-0.4175"/>
    <ellipse cx="212.56" cy="123.61" rx="2.1898" ry="2.2193" opacity=".66994"/>
    <path d="m212.59 116.29c-0.15595-0.48432-0.52058-0.39266-1.172-0.35926s-1.0774 0.25056-1.2027 0.70159c-0.12528 0.45102-0.0919 1.0273-0.0418 1.5118 0.0501 0.48442 0.4087 1.9202 0.4087 1.9202l1.4135-0.26316s-0.38849-3.8284 0.59433-3.5111"/>
    <path d="m210.45 120.09 1.6943-0.32464c0.11435 0.42981 0.14285 0.78629 0.15194 1.1332l-1.5904 0.34585c-0.10681-0.38729-0.23653-0.75621-0.25585-1.1544z" opacity=".66994"/>
    <path d="m212.21 120.92 0.0748 0.48261"/>
    <path d="m210.81 121.22 0.14079 0.87298"/>
    <path d="m210.18 116.78c-2.9084 1.0526-2.4062 5.0537-2.7364 5.9574m1.466 0.80129c0.16631 1.8071 1.8003 2.9368 1.8857 4.4591 0.0155 0.35967-0.0315 0.77927-0.17958 1.2537-0.0879 0.28177-0.21152 0.58287-0.36796 0.90358l5.9913-3e-3"/>
    <path d="m213.13 125.75c0.28291 0.29375 0.25091 0.92146 0.67125 1.2079 1.3196 0.89933 1.2866 2.2608 0.5831 3.2044"/>
    <path d="m217.61 116.9s0.0402 0.54666 0.14989 0.62384"/>
    <path d="m210.68 122.48s-1.2547 1.0161-2.1113 1.1608"/>
    <path d="m207.45 122.74s1.9611 1.1493 1.0963 1.6495c-0.86481 0.50022-1.7826-0.78136-1.7412-1.1369 0.0413-0.35553 0.0661-0.76895 0.64492-0.51263"/>
    <path d="m208.32 124.48s0.22808 0.9158 0.9531 2.0383c0.72496 1.1225 0.30401 1.1459 0.30401 1.1459-1.1516 0.47047-2.0618 2.2186-3.4962-0.30402 0 0 0.94042-2.3968 0.9558-3.553"/>
   </g>
   <g fill-rule="evenodd">
    <path transform="scale(.26458)" d="m806.13 459.17c-0.46876-0.18734-1.5017-0.39957-2.2954-0.47164l-1.4431-0.13103-0.11548-0.70711c-0.0687-0.42062-0.0419-0.75332 0.0661-0.82117 0.11663-0.0732 0.13643-0.57938 0.0553-1.4142-0.19951-2.054-0.43102-2.9324-0.79813-3.0284-0.28853-0.0754-0.33722-0.38469-0.45509-2.8904-0.30459-6.4746 0.43268-10.142 2.0388-10.142 0.27525 0 1.3222-0.19676 2.3266-0.43725 3.3376-0.79917 5.202-1.0336 8.1901-1.03 2.3008 3e-3 3.0805 0.0718 4.1796 0.36975 2.4207 0.6562 4.5708 1.9994 4.5708 2.8555 0 0.56493-1.1481 3.5594-2.1712 5.6631-1.834 3.7708-4.835 7.5575-7.7283 9.7515-1.184 0.89788-4.3441 2.5603-5.1265 2.6969-0.24307 0.0424-0.82547-0.0761-1.2942-0.26343z" fill="#f34100" opacity=".66994"/>
    <path transform="scale(.26458)" d="m795.89 453.31c-0.0461-0.21781-0.38757-1.7086-0.75893-3.3128-0.63193-2.73-0.67599-3.1039-0.68784-5.8376-0.0121-2.7987 6e-3 -2.9576 0.43954-3.8002 0.6744-1.3116 1.7878-1.8296 4.4679-2.0787 2.339-0.21737 3.2532-0.0532 3.7266 0.66923 0.27953 0.42661 0.27549 0.44069-0.12645 0.44069-0.22836 0-0.58548 0.18125-0.7936 0.40278-0.97871 1.0418-1.3296 3.5629-1.2468 8.9585l0.0609 3.9696-2.1213 0.39949c-1.1667 0.21972-2.2912 0.44124-2.4988 0.49228-0.28705 0.0706-0.39753-2e-3 -0.46121-0.30324z" fill="#f39300" opacity=".66994"/>
    <path transform="scale(.26458)" d="m787.49 466.27c-0.51366-0.46517-1.4518-1.1951-2.0848-1.622-1.1116-0.74973-1.1477-0.79734-1.0557-1.3949 0.0524-0.34029 0.21716-1.9313 0.36624-3.5355 0.52989-5.7019 1.3442-9.1323 2.8721-12.099 1.2677-2.4619 4.212-5.2404 6.1837-5.8356l0.39774-0.12006v2.301c0 2.3558 0.24821 4.053 1.1532 7.8862 0.36099 1.5289 0.38204 1.7861 0.1565 1.9124-0.29478 0.16497-0.25095 0.57058 0.30925 2.8619 0.19017 0.77781 0.47174 1.5107 0.62572 1.6287 0.16717 0.12805 0.37971 0.79206 0.52754 1.648l0.24757 1.4336-0.5906 0.82222c-0.72446 1.0086-3.4703 2.9402-5.6996 4.0095-2.2944 1.1006-2.3078 1.101-3.4088 0.10397z" fill="#f34100" opacity=".66994"/>
   </g>
   <g fill="#f39300" fill-rule="evenodd">
    <path transform="scale(.26458)" d="m796.38 457.92c-0.31554-0.89912-0.80031-2.9718-0.80031-3.4217v-0.544l2.7134-0.48561c1.4924-0.26708 2.8743-0.52766 3.0708-0.57906 0.31764-0.0831 0.37893 0.031 0.55129 1.0261 0.28698 1.6567 0.42816 2.9757 0.31851 2.9757-0.13178 0-5.074 1.061-5.4617 1.1726-0.17063 0.0491-0.34705-0.0157-0.39206-0.14391z" opacity=".66994"/>
    <path transform="scale(.26458)" d="m797.17 459.88c-0.11419-0.67701-0.16819-1.3337-0.12001-1.4592 0.0889-0.23175 4.6633-1.29 4.8348-1.1185 0.05 0.05 0.13298 0.40506 0.18449 0.7891 0.093 0.69324 0.0888 0.69915-0.58939 0.82223-0.95636 0.17359-2.3041 0.81662-3.2765 1.5633l-0.82571 0.63403z" opacity=".66994"/>
    <path transform="scale(.26458)" d="m801.46 475.18c-1.467-0.39508-2.6884-1.1034-3.7732-2.1882-4.7582-4.7582-2.1741-12.829 4.4778-13.985 3.3668-0.58527 6.8582 1.2779 8.4628 4.5163 0.64834 1.3084 0.73807 1.6456 0.8199 3.0807 0.11349 1.9904-0.24071 3.462-1.1844 4.9207-1.9799 3.0606-5.5332 4.5362-8.8029 3.6557z" opacity=".66994"/>
   </g>
   <g fill-rule="evenodd">
    <path transform="scale(.26458)" d="m794.97 491.59c1.703-3.9422 2.2149-7.0249 1.579-9.5088-0.38112-1.4887-1.3772-3.4906-3.1629-6.3569-0.84802-1.3612-1.8589-3.1356-2.2464-3.9432-0.64195-1.338-1.3921-3.7326-1.3921-4.444 0-0.17924 0.44889-0.5069 1.1932-0.87097 1.3575-0.66396 2.5456-1.386 3.8891-2.3636 0.51044-0.37142 0.92705-0.65291 0.92579-0.62553-1e-3 0.0274-0.16035 0.55404-0.35355 1.1704-1.1924 3.804 0.57265 8.1823 4.0196 9.9705 1.6409 0.85127 2.781 1.0881 4.6543 0.9667l1.5445-0.10007 0.44092 1.0038c0.24251 0.55209 0.54095 1.3189 0.6632 1.704 0.14323 0.45123 0.54041 0.98556 1.1169 1.5026 1.8665 1.674 2.8695 2.8005 3.321 3.7301 1.2028 2.4764 1.0559 5.053-0.43037 7.5463l-0.55322 0.92808h-7.6714c-7.2391 0-7.6638-0.0174-7.5377-0.30936z" fill="#f34100" opacity=".66994"/>
    <path transform="scale(.26458)" d="m810.64 491.76c0.033-0.0729 0.27891-0.54888 0.54654-1.0577 2.0151-3.831 0.94631-8.0667-2.7132-10.753-0.91558-0.6721-1.3821-1.4027-1.9505-3.0549-0.18195-0.52884-0.42213-1.0716-0.53372-1.206-0.24166-0.29118-0.31016-0.23129 0.96074-0.83998 0.56369-0.26997 1.4964-0.9274 2.0727-1.461 1.8085-1.6744 2.6957-3.7444 2.6847-6.2641-0.0122-2.8014-1.0706-4.9819-3.2567-6.71l-0.84832-0.67055 1.6775-0.79464c5.1015-2.4166 9.1712-6.9725 11.947-13.374 0.39972-0.92189 0.75671-1.7063 0.79332-1.7431 0.14241-0.14322 1.8575 1.0986 2.5403 1.8393 1.6122 1.749 2.6484 3.8511 3.5784 7.2589 0.6209 2.2752 0.67902 3.003 0.35713 4.4721-0.11474 0.52371-0.20862 1.3372-0.20862 1.8076 0 0.82814 0.055 0.91901 1.7252 2.8485 1.9554 2.259 2.7252 3.2269 3.033 3.8137 0.32657 0.62247-0.051 1.5118-0.95687 2.2542l-0.76794 0.62927 0.0681 1.0696c0.0375 0.58826 0.15384 1.1729 0.25866 1.2992 0.17098 0.20602 0.14172 0.58719-0.11877 1.547-0.0465 0.17121-0.33251 0.43955-0.63564 0.59631l-0.55114 0.28501 0.51948 0.26907c0.67354 0.34888 0.77867 0.52497 0.78194 1.3097 3e-3 0.63863-0.21147 0.91559-1.1375 1.4712-0.27199 0.16321-0.27346 0.25765-0.0191 1.2304 0.37556 1.4365 0.34637 2.1781-0.1223 3.1066-0.8026 1.5901-2.7624 2.1184-6.2314 1.6794-4.0125-0.50769-4.9623-0.34024-5.9137 1.0426-1.4841 2.1571-1.8993 4.2578-1.3736 6.9505l0.25017 1.2816h-3.2578c-1.7918 0-3.2308-0.0597-3.1979-0.13259zm16.034-29.853c0.64453-0.12891 0.72591-0.36878 0.15468-0.45594-0.25441-0.0388-0.36897-0.15474-0.31788-0.32166 0.23186-0.7576 0.19369-2.4471-0.0681-3.013-0.19567-0.42298-0.25084-0.47289-0.18217-0.16481 0.29258 1.3126 0.29998 2.474 0.0185 2.9036-0.28289 0.43175-0.30251 0.43507-1.0376 0.17571-0.41209-0.1454-0.92676-0.38066-1.1437-0.5228-0.59434-0.38943-0.80461-0.31345-0.48452 0.17508 0.27049 0.41282 1.8588 1.3343 2.3 1.3343 0.1146 0 0.45695-0.0497 0.76079-0.11049zm-4.5014-5.6281c1.8878-1.4074 2.3984-1.532 4.0012-0.97618 1.2079 0.41887 1.6865 0.39374 1.8754-0.0984 0.17804-0.46397-0.21894-1.0666-0.92252-1.4005-0.8358-0.39661-2.6227-0.25803-3.7654 0.29202-0.93256 0.4489-3.2059 2.5892-3.2059 3.0183 0 0.52554 0.43199 0.34669 2.0173-0.8352z" fill="#f35900" opacity=".66994"/>
    <path transform="scale(.26458)" d="m820.51 456.91c0-0.20729 1.8445-1.891 2.6701-2.4374 0.37341-0.24711 1.1289-0.50073 1.8052-0.60602 1.026-0.15974 1.2578-0.13913 1.9678 0.17492 0.64226 0.28411 0.80479 0.44428 0.80479 0.79315 0 0.59422-0.27556 0.64601-1.3977 0.26273-1.7672-0.6036-2.4682-0.4414-4.3673 1.0105-1.2752 0.97488-1.4828 1.0872-1.4828 0.8021z" fill="#f34100" opacity=".66994"/>
    <path transform="scale(.26458)" d="m785.71 470.37c-1.4214-0.44521-2.9569-1.8706-3.7199-3.4532-0.32092-0.66567-0.366-1.0734-0.20974-1.8973 0.2285-1.2049 0.80037-1.5716 1.865-1.196 0.51963 0.18334 2.1478 1.2821 3.1772 2.1441 1.7174 1.4381 2.4096 2.6462 1.9858 3.4656-0.4179 0.80813-1.9908 1.2837-3.0984 0.93681z" fill="#f39300" opacity=".66994"/>
   </g>
   <g fill="#f34100" fill-rule="evenodd">
    <path transform="scale(.26458)" d="m783.53 485.98c-1.0644-0.36705-3.3215-2.5592-4.0142-3.8989-0.37521-0.72557-0.34532-0.89431 0.73993-4.1768 1.1068-3.3477 1.9481-6.4545 2.2715-8.3886l0.16187-0.96794 0.67046 0.6249c0.91164 0.84969 1.7388 1.2575 2.8849 1.4223 0.91469 0.13153 0.99367 0.21647 1.5303 1.6459 0.7013 1.8681 1.6279 3.7192 2.9998 5.9928 0.58079 0.9625 1.2134 2.1877 1.4057 2.7226 0.32132 0.89358 0.31202 0.99511-0.11461 1.25-0.25538 0.15259-1.3363 0.85765-2.4021 1.5668-3.5271 2.3468-4.604 2.7344-6.1335 2.207z" opacity=".66994"/>
    <path transform="scale(.26458)" d="m825.47 461.62c-0.66369-0.22938-1.3586-0.62481-1.2642-0.71929 0.0297-0.0297 0.30178 0.0552 0.60459 0.18861 0.30281 0.13346 0.82243 0.31075 1.1547 0.39398 0.41283 0.1034 0.55137 0.18477 0.4375 0.25695-0.21346 0.13532-0.18117 0.13948-0.93262-0.12025z" opacity=".66994"/>
    <path transform="scale(.26458)" d="m822.17 443.52c-0.0491-0.12788-0.0118-0.42619 0.0827-0.66291 0.0946-0.23673 0.17809-0.31108 0.18558-0.16524 7e-3 0.14584 0.0616 0.44415 0.12021 0.66291 0.11442 0.42695-0.23161 0.57412-0.38852 0.16524z" opacity=".66994"/>
   </g>
  </g>
 </g>
</svg>
