<?xml version="1.0" encoding="UTF-8" standalone="no"?>
<svg
   xmlns:dc="http://purl.org/dc/elements/1.1/"
   xmlns:cc="http://creativecommons.org/ns#"
   xmlns:rdf="http://www.w3.org/1999/02/22-rdf-syntax-ns#"
   xmlns:svg="http://www.w3.org/2000/svg"
   xmlns="http://www.w3.org/2000/svg"
   xmlns:sodipodi="http://sodipodi.sourceforge.net/DTD/sodipodi-0.dtd"
   xmlns:inkscape="http://www.inkscape.org/namespaces/inkscape"
   width="52.700001mm"
   height="52.700005mm"
   viewBox="0 0 52.700001 52.700005"
   version="1.1"
   id="svg8"
   inkscape:version="1.0.2-2 (e86c870879, 2021-01-15)"
   sodipodi:docname="UploadSymbol.svg">
  <defs
     id="defs2">
    <rect
       x="300.1131"
       y="74.083336"
       width="14.93006"
       height="12.095238"
       id="rect873" />
    <rect
       x="297.46725"
       y="56.318455"
       width="36.85268"
       height="20.410713"
       id="rect867" />
    <rect
       x="297.46725"
       y="56.318455"
       width="36.85268"
       height="20.410713"
       id="rect867-5" />
    <rect
       x="297.46725"
       y="56.318455"
       width="36.85268"
       height="20.410713"
       id="rect886" />
    <rect
       x="297.46725"
       y="56.318455"
       width="36.85268"
       height="20.410713"
       id="rect867-4" />
    <rect
       x="297.46725"
       y="56.318455"
       width="36.85268"
       height="20.410713"
       id="rect886-0" />
    <rect
       x="297.46725"
       y="56.318455"
       width="36.85268"
       height="20.410713"
       id="rect867-5-5" />
    <rect
       x="297.46725"
       y="56.318455"
       width="36.85268"
       height="20.410713"
       id="rect943" />
    <rect
       x="297.46725"
       y="56.318455"
       width="36.85268"
       height="20.410713"
       id="rect867-51" />
    <rect
       x="297.46725"
       y="56.318455"
       width="36.85268"
       height="20.410713"
       id="rect961" />
    <rect
       x="297.46725"
       y="56.318455"
       width="36.85268"
       height="20.410713"
       id="rect867-5-9" />
    <rect
       x="297.46725"
       y="56.318455"
       width="36.85268"
       height="20.410713"
       id="rect964" />
    <rect
       x="297.46725"
       y="56.318455"
       width="36.85268"
       height="20.410713"
       id="rect867-5-5-2" />
    <rect
       x="297.46725"
       y="56.318455"
       width="36.85268"
       height="20.410713"
       id="rect967" />
    <filter
       inkscape:collect="always"
       style="color-interpolation-filters:sRGB"
       id="filter1119"
       x="-0.027000001"
       width="1.054"
       y="-0.026999999"
       height="1.054">
      <feGaussianBlur
         inkscape:collect="always"
         stdDeviation="0.56250002"
         id="feGaussianBlur1121" />
    </filter>
  </defs>
  <sodipodi:namedview
     id="base"
     pagecolor="#ffffff"
     bordercolor="#666666"
     borderopacity="1.0"
     inkscape:pageopacity="0.0"
     inkscape:pageshadow="2"
     inkscape:zoom="2"
     inkscape:cx="112.84937"
     inkscape:cy="105.19182"
     inkscape:document-units="mm"
     inkscape:current-layer="g979"
     inkscape:document-rotation="0"
     showgrid="false"
     inkscape:window-width="1920"
     inkscape:window-height="1017"
     inkscape:window-x="-8"
     inkscape:window-y="-8"
     inkscape:window-maximized="1"
     showborder="false"
     fit-margin-top="0"
     fit-margin-left="0"
     fit-margin-right="0"
     fit-margin-bottom="0" />
  <metadata
     id="metadata5">
    <rdf:RDF>
      <cc:Work
         rdf:about="">
        <dc:format>image/svg+xml</dc:format>
        <dc:type
           rdf:resource="http://purl.org/dc/dcmitype/StillImage" />
        <dc:title></dc:title>
      </cc:Work>
    </rdf:RDF>
  </metadata>
  <g
     inkscape:label="Layer 1"
     inkscape:groupmode="layer"
     id="layer1"
     transform="translate(-404.29964,-171.01101)">
    <g
       id="g979"
       transform="translate(1.6063988,3.1655506)"
       style="stroke-width:1;stroke-miterlimit:4;stroke-dasharray:none">
      <g
         id="g1129">
        <ellipse
           style="opacity:0.2;fill:#000000;fill-opacity:1;fill-rule:evenodd;stroke-width:0.00958577;stroke-linecap:round;stroke-linejoin:round;stroke-miterlimit:4;stroke-dasharray:none;filter:url(#filter1119)"
           id="path967-7"
           cx="429.04324"
           cy="194.19547"
           rx="25"
           ry="25.000002" />
        <g
           id="g993"
           transform="matrix(0.06494029,0,0,0.06494906,396.99389,106.56989)">
          <ellipse
             style="opacity:1;fill:#f35900;fill-opacity:1;fill-rule:evenodd;stroke-width:0.147599;stroke-linecap:round;stroke-linejoin:round"
             id="path967"
             cx="493.52032"
             cy="1333.7463"
             rx="384.96902"
             ry="384.91708" />
          <g
             id="Upload"
             transform="translate(301.03582,1141.2618)"
             style="fill:#ffffff;fill-opacity:1">
            <path
               d="m 372.939,264.641 c -6.641,0 -12.03,5.39 -12.03,12.03 v 84.212 H 24.061 v -84.212 c 0,-6.641 -5.39,-12.03 -12.03,-12.03 -6.64,0 -12.031,5.39 -12.031,12.03 v 96.242 c 0,6.641 5.39,12.03 12.03,12.03 h 360.909 c 6.641,0 12.03,-5.39 12.03,-12.03 v -96.242 c 0.001,-6.652 -5.389,-12.03 -12.03,-12.03 z"
               id="path2"
               style="fill:#ffffff;fill-opacity:1" />
            <path
               d="m 117.067,103.507 63.46,-62.558 v 235.71 c 0,6.641 5.438,12.03 12.151,12.03 6.713,0 12.151,-5.39 12.151,-12.03 V 40.95 l 63.46,62.558 c 4.74,4.704 12.439,4.704 17.179,0 4.74,-4.704 4.752,-12.319 0,-17.011 L 201.268,3.5 c -4.692,-4.656 -12.584,-4.608 -17.191,0 L 99.888,86.496 c -4.752,4.704 -4.74,12.319 0,17.011 4.74,4.704 12.439,4.704 17.179,0 z"
               id="path4"
               style="fill:#ffffff;fill-opacity:1" />
          </g>
        </g>
      </g>
    </g>
  </g>
</svg>
